<svg width="13" height="13" viewBox="0 0 13 13" fill="none" xmlns="http://www.w3.org/2000/svg">
<path d="M10.7778 5.88889C10.7778 6.85582 10.491 7.80103 9.95385 8.60501C9.41665 9.40898 8.65311 10.0356 7.75979 10.4056C6.86646 10.7757 5.88347 10.8725 4.93511 10.6838C3.98676 10.4952 3.11565 10.0296 2.43192 9.34585C1.7482 8.66213 1.28258 7.79101 1.09394 6.84266C0.905302 5.89431 1.00212 4.91132 1.37215 4.01799C1.74217 3.12466 2.3688 2.36112 3.17277 1.82393C3.97674 1.28673 4.92196 1 5.88889 1C7.1855 1 8.42901 1.51508 9.34585 2.43192C10.2627 3.34877 10.7778 4.59227 10.7778 5.88889Z" stroke="#919EAB" stroke-linecap="round" stroke-linejoin="round"/>
<path d="M12.0001 12.0001L9.3418 9.3418" stroke="#919EAB" stroke-linecap="round" stroke-linejoin="round"/>
</svg>
