<svg width="14" height="14" viewBox="0 0 14 14" fill="none" xmlns="http://www.w3.org/2000/svg">
<g clip-path="url(#clip0_1569_4272)">
<path d="M6.72835 8.55512C6.59083 8.55512 6.45894 8.60975 6.3617 8.70699C6.26446 8.80423 6.20983 8.93612 6.20983 9.07364V10.6292C6.20983 11.0418 6.04594 11.4374 5.75422 11.7291C5.4625 12.0209 5.06684 12.1848 4.65428 12.1848H3.37042C2.95787 12.1848 2.5622 12.0209 2.27048 11.7291C1.97876 11.4374 1.81487 11.0418 1.81487 10.6292V3.36994C1.81487 2.95738 1.97876 2.56172 2.27048 2.26999C2.5622 1.97827 2.95787 1.81438 3.37042 1.81438H4.65428C5.06684 1.81438 5.4625 1.97827 5.75422 2.26999C6.04594 2.56172 6.20983 2.95738 6.20983 3.36994V4.92549C6.20983 5.06301 6.26446 5.1949 6.3617 5.29214C6.45894 5.38938 6.59083 5.44401 6.72835 5.44401C6.86587 5.44401 6.99776 5.38938 7.095 5.29214C7.19224 5.1949 7.24687 5.06301 7.24687 4.92549V3.36994C7.24605 2.68259 6.97263 2.02363 6.48661 1.53761C6.00058 1.05158 5.34162 0.778167 4.65428 0.777344H3.37042C2.68308 0.778167 2.02412 1.05158 1.53809 1.53761C1.05207 2.02363 0.778655 2.68259 0.777832 3.36994L0.777832 10.6292C0.778655 11.3165 1.05207 11.9755 1.53809 12.4615C2.02412 12.9476 2.68308 13.221 3.37042 13.2218H4.65428C5.34162 13.221 6.00058 12.9476 6.48661 12.4615C6.97263 11.9755 7.24605 11.3165 7.24687 10.6292V9.07364C7.24687 8.93612 7.19224 8.80423 7.095 8.70699C6.99776 8.60975 6.86587 8.55512 6.72835 8.55512Z" fill="#919EAB"/>
<path d="M12.6347 5.8995L10.2568 3.52158C10.209 3.47206 10.1518 3.43255 10.0885 3.40538C10.0252 3.3782 9.9572 3.3639 9.88835 3.3633C9.8195 3.3627 9.75122 3.37582 9.6875 3.40189C9.62377 3.42796 9.56588 3.46647 9.51719 3.51515C9.46851 3.56384 9.43001 3.62173 9.40394 3.68545C9.37786 3.74918 9.36475 3.81746 9.36534 3.88631C9.36594 3.95515 9.38025 4.02319 9.40742 4.08646C9.4346 4.14972 9.4741 4.20693 9.52362 4.25476L11.7341 6.46521L3.88888 6.48076C3.75136 6.48076 3.61947 6.53539 3.52223 6.63263C3.42499 6.72988 3.37036 6.86176 3.37036 6.99928C3.37036 7.1368 3.42499 7.26869 3.52223 7.36593C3.61947 7.46317 3.75136 7.5178 3.88888 7.5178L11.7641 7.50225L9.52258 9.7438C9.47306 9.79163 9.43356 9.84885 9.40638 9.91211C9.37921 9.97537 9.3649 10.0434 9.36431 10.1123C9.36371 10.1811 9.37683 10.2494 9.4029 10.3131C9.42897 10.3768 9.46747 10.4347 9.51616 10.4834C9.56484 10.5321 9.62274 10.5706 9.68646 10.5967C9.75018 10.6227 9.81846 10.6359 9.88731 10.6353C9.95616 10.6347 10.0242 10.6204 10.0875 10.5932C10.1507 10.566 10.2079 10.5265 10.2558 10.477L12.6337 8.09906C12.9255 7.80749 13.0895 7.41197 13.0897 6.9995C13.0899 6.58702 12.9262 6.19135 12.6347 5.8995Z" fill="#919EAB"/>
</g>
<defs>
<clipPath id="clip0_1569_4272">
<rect width="14" height="14" fill="white"/>
</clipPath>
</defs>
</svg>
